solid 
 facet normal  0.000000e+00 -1.000000e+00  0.000000e+00
   outer loop
     vertex -9.000000e+01 -2.500000e+01  0.000000e+00
     vertex -1.100000e+02 -2.500000e+01  5.000000e-02
     vertex -1.100000e+02 -2.500000e+01  0.000000e+00
   endloop
 endfacet
 facet normal  0.000000e+00 -1.000000e+00  0.000000e+00
   outer loop
     vertex -9.000000e+01 -2.500000e+01  0.000000e+00
     vertex -9.000000e+01 -2.500000e+01  5.000000e-02
     vertex -1.100000e+02 -2.500000e+01  5.000000e-02
   endloop
 endfacet
 facet normal  1.000000e+00  0.000000e+00  0.000000e+00
   outer loop
     vertex -9.000000e+01  2.500000e+01  5.000000e-02
     vertex -9.000000e+01 -2.500000e+01  5.000000e-02
     vertex -9.000000e+01 -2.500000e+01  0.000000e+00
   endloop
 endfacet
 facet normal  1.000000e+00  0.000000e+00 -0.000000e+00
   outer loop
     vertex -9.000000e+01  2.500000e+01  0.000000e+00
     vertex -9.000000e+01  2.500000e+01  5.000000e-02
     vertex -9.000000e+01 -2.500000e+01  0.000000e+00
   endloop
 endfacet
 facet normal  0.000000e+00  1.000000e+00  0.000000e+00
   outer loop
     vertex -1.100000e+02  2.500000e+01  0.000000e+00
     vertex -9.000000e+01  2.500000e+01  5.000000e-02
     vertex -9.000000e+01  2.500000e+01  0.000000e+00
   endloop
 endfacet
 facet normal  0.000000e+00  1.000000e+00  0.000000e+00
   outer loop
     vertex -1.100000e+02  2.500000e+01  0.000000e+00
     vertex -1.100000e+02  2.500000e+01  5.000000e-02
     vertex -9.000000e+01  2.500000e+01  5.000000e-02
   endloop
 endfacet
 facet normal -1.000000e+00  0.000000e+00  0.000000e+00
   outer loop
     vertex -1.100000e+02 -2.500000e+01  5.000000e-02
     vertex -1.100000e+02  2.500000e+01  5.000000e-02
     vertex -1.100000e+02  2.500000e+01  0.000000e+00
   endloop
 endfacet
 facet normal -1.000000e+00  0.000000e+00  0.000000e+00
   outer loop
     vertex -1.100000e+02 -2.500000e+01  0.000000e+00
     vertex -1.100000e+02 -2.500000e+01  5.000000e-02
     vertex -1.100000e+02  2.500000e+01  0.000000e+00
   endloop
 endfacet
 facet normal  0.000000e+00 -0.000000e+00 -1.000000e+00
   outer loop
     vertex -9.000000e+01  2.500000e+01  0.000000e+00
     vertex -9.000000e+01 -2.500000e+01  0.000000e+00
     vertex -1.100000e+02 -2.500000e+01  0.000000e+00
   endloop
 endfacet
 facet normal -0.000000e+00  0.000000e+00 -1.000000e+00
   outer loop
     vertex -9.000000e+01  2.500000e+01  0.000000e+00
     vertex -1.100000e+02 -2.500000e+01  0.000000e+00
     vertex -1.100000e+02  2.500000e+01  0.000000e+00
   endloop
 endfacet
 facet normal  0.000000e+00  0.000000e+00  1.000000e+00
   outer loop
     vertex -9.000000e+01  2.500000e+01  5.000000e-02
     vertex -1.100000e+02 -2.500000e+01  5.000000e-02
     vertex -9.000000e+01 -2.500000e+01  5.000000e-02
   endloop
 endfacet
 facet normal  0.000000e+00  0.000000e+00  1.000000e+00
   outer loop
     vertex -9.000000e+01  2.500000e+01  5.000000e-02
     vertex -1.100000e+02  2.500000e+01  5.000000e-02
     vertex -1.100000e+02 -2.500000e+01  5.000000e-02
   endloop
 endfacet
 facet normal -0.000000e+00 -1.000000e+00  0.000000e+00
   outer loop
     vertex -6.500000e+01 -2.500000e+01  1.000000e-01
     vertex -8.500000e+01 -2.500000e+01  1.000000e-01
     vertex -8.500000e+01 -2.500000e+01  0.000000e+00
   endloop
 endfacet
 facet normal  0.000000e+00 -1.000000e+00  0.000000e+00
   outer loop
     vertex -6.500000e+01 -2.500000e+01  0.000000e+00
     vertex -6.500000e+01 -2.500000e+01  1.000000e-01
     vertex -8.500000e+01 -2.500000e+01  0.000000e+00
   endloop
 endfacet
 facet normal  1.000000e+00  0.000000e+00  0.000000e+00
   outer loop
     vertex -6.500000e+01  2.500000e+01  0.000000e+00
     vertex -6.500000e+01 -2.500000e+01  1.000000e-01
     vertex -6.500000e+01 -2.500000e+01  0.000000e+00
   endloop
 endfacet
 facet normal  1.000000e+00  0.000000e+00 -0.000000e+00
   outer loop
     vertex -6.500000e+01  2.500000e+01  0.000000e+00
     vertex -6.500000e+01  2.500000e+01  1.000000e-01
     vertex -6.500000e+01 -2.500000e+01  1.000000e-01
   endloop
 endfacet
 facet normal -0.000000e+00  1.000000e+00  0.000000e+00
   outer loop
     vertex -8.500000e+01  2.500000e+01  1.000000e-01
     vertex -6.500000e+01  2.500000e+01  1.000000e-01
     vertex -6.500000e+01  2.500000e+01  0.000000e+00
   endloop
 endfacet
 facet normal  0.000000e+00  1.000000e+00  0.000000e+00
   outer loop
     vertex -8.500000e+01  2.500000e+01  0.000000e+00
     vertex -8.500000e+01  2.500000e+01  1.000000e-01
     vertex -6.500000e+01  2.500000e+01  0.000000e+00
   endloop
 endfacet
 facet normal -1.000000e+00  0.000000e+00  0.000000e+00
   outer loop
     vertex -8.500000e+01 -2.500000e+01  0.000000e+00
     vertex -8.500000e+01  2.500000e+01  1.000000e-01
     vertex -8.500000e+01  2.500000e+01  0.000000e+00
   endloop
 endfacet
 facet normal -1.000000e+00  0.000000e+00  0.000000e+00
   outer loop
     vertex -8.500000e+01 -2.500000e+01  0.000000e+00
     vertex -8.500000e+01 -2.500000e+01  1.000000e-01
     vertex -8.500000e+01  2.500000e+01  1.000000e-01
   endloop
 endfacet
 facet normal  0.000000e+00 -0.000000e+00 -1.000000e+00
   outer loop
     vertex -6.500000e+01  2.500000e+01  0.000000e+00
     vertex -6.500000e+01 -2.500000e+01  0.000000e+00
     vertex -8.500000e+01 -2.500000e+01  0.000000e+00
   endloop
 endfacet
 facet normal -0.000000e+00  0.000000e+00 -1.000000e+00
   outer loop
     vertex -6.500000e+01  2.500000e+01  0.000000e+00
     vertex -8.500000e+01 -2.500000e+01  0.000000e+00
     vertex -8.500000e+01  2.500000e+01  0.000000e+00
   endloop
 endfacet
 facet normal  0.000000e+00  0.000000e+00  1.000000e+00
   outer loop
     vertex -6.500000e+01  2.500000e+01  1.000000e-01
     vertex -8.500000e+01 -2.500000e+01  1.000000e-01
     vertex -6.500000e+01 -2.500000e+01  1.000000e-01
   endloop
 endfacet
 facet normal  0.000000e+00  0.000000e+00  1.000000e+00
   outer loop
     vertex -6.500000e+01  2.500000e+01  1.000000e-01
     vertex -8.500000e+01  2.500000e+01  1.000000e-01
     vertex -8.500000e+01 -2.500000e+01  1.000000e-01
   endloop
 endfacet
 facet normal  0.000000e+00 -1.000000e+00  0.000000e+00
   outer loop
     vertex -4.000000e+01 -2.500000e+01  0.000000e+00
     vertex -6.000000e+01 -2.500000e+01  1.500000e-01
     vertex -6.000000e+01 -2.500000e+01  0.000000e+00
   endloop
 endfacet
 facet normal  0.000000e+00 -1.000000e+00  0.000000e+00
   outer loop
     vertex -4.000000e+01 -2.500000e+01  0.000000e+00
     vertex -4.000000e+01 -2.500000e+01  1.500000e-01
     vertex -6.000000e+01 -2.500000e+01  1.500000e-01
   endloop
 endfacet
 facet normal  1.000000e+00  0.000000e+00  0.000000e+00
   outer loop
     vertex -4.000000e+01  2.500000e+01  0.000000e+00
     vertex -4.000000e+01 -2.500000e+01  1.500000e-01
     vertex -4.000000e+01 -2.500000e+01  0.000000e+00
   endloop
 endfacet
 facet normal  1.000000e+00  0.000000e+00 -0.000000e+00
   outer loop
     vertex -4.000000e+01  2.500000e+01  0.000000e+00
     vertex -4.000000e+01  2.500000e+01  1.500000e-01
     vertex -4.000000e+01 -2.500000e+01  1.500000e-01
   endloop
 endfacet
 facet normal  0.000000e+00  1.000000e+00  0.000000e+00
   outer loop
     vertex -6.000000e+01  2.500000e+01  0.000000e+00
     vertex -4.000000e+01  2.500000e+01  1.500000e-01
     vertex -4.000000e+01  2.500000e+01  0.000000e+00
   endloop
 endfacet
 facet normal  0.000000e+00  1.000000e+00  0.000000e+00
   outer loop
     vertex -6.000000e+01  2.500000e+01  0.000000e+00
     vertex -6.000000e+01  2.500000e+01  1.500000e-01
     vertex -4.000000e+01  2.500000e+01  1.500000e-01
   endloop
 endfacet
 facet normal -1.000000e+00  0.000000e+00  0.000000e+00
   outer loop
     vertex -6.000000e+01 -2.500000e+01  0.000000e+00
     vertex -6.000000e+01  2.500000e+01  1.500000e-01
     vertex -6.000000e+01  2.500000e+01  0.000000e+00
   endloop
 endfacet
 facet normal -1.000000e+00  0.000000e+00  0.000000e+00
   outer loop
     vertex -6.000000e+01 -2.500000e+01  0.000000e+00
     vertex -6.000000e+01 -2.500000e+01  1.500000e-01
     vertex -6.000000e+01  2.500000e+01  1.500000e-01
   endloop
 endfacet
 facet normal  0.000000e+00 -0.000000e+00 -1.000000e+00
   outer loop
     vertex -4.000000e+01  2.500000e+01  0.000000e+00
     vertex -4.000000e+01 -2.500000e+01  0.000000e+00
     vertex -6.000000e+01 -2.500000e+01  0.000000e+00
   endloop
 endfacet
 facet normal -0.000000e+00  0.000000e+00 -1.000000e+00
   outer loop
     vertex -4.000000e+01  2.500000e+01  0.000000e+00
     vertex -6.000000e+01 -2.500000e+01  0.000000e+00
     vertex -6.000000e+01  2.500000e+01  0.000000e+00
   endloop
 endfacet
 facet normal  0.000000e+00  0.000000e+00  1.000000e+00
   outer loop
     vertex -4.000000e+01  2.500000e+01  1.500000e-01
     vertex -6.000000e+01 -2.500000e+01  1.500000e-01
     vertex -4.000000e+01 -2.500000e+01  1.500000e-01
   endloop
 endfacet
 facet normal  0.000000e+00  0.000000e+00  1.000000e+00
   outer loop
     vertex -4.000000e+01  2.500000e+01  1.500000e-01
     vertex -6.000000e+01  2.500000e+01  1.500000e-01
     vertex -6.000000e+01 -2.500000e+01  1.500000e-01
   endloop
 endfacet
 facet normal -0.000000e+00 -1.000000e+00  0.000000e+00
   outer loop
     vertex -1.500000e+01 -2.500000e+01  2.000000e-01
     vertex -3.500000e+01 -2.500000e+01  2.000000e-01
     vertex -3.500000e+01 -2.500000e+01  0.000000e+00
   endloop
 endfacet
 facet normal  0.000000e+00 -1.000000e+00  0.000000e+00
   outer loop
     vertex -1.500000e+01 -2.500000e+01  0.000000e+00
     vertex -1.500000e+01 -2.500000e+01  2.000000e-01
     vertex -3.500000e+01 -2.500000e+01  0.000000e+00
   endloop
 endfacet
 facet normal  1.000000e+00  0.000000e+00  0.000000e+00
   outer loop
     vertex -1.500000e+01  2.500000e+01  0.000000e+00
     vertex -1.500000e+01 -2.500000e+01  2.000000e-01
     vertex -1.500000e+01 -2.500000e+01  0.000000e+00
   endloop
 endfacet
 facet normal  1.000000e+00  0.000000e+00 -0.000000e+00
   outer loop
     vertex -1.500000e+01  2.500000e+01  0.000000e+00
     vertex -1.500000e+01  2.500000e+01  2.000000e-01
     vertex -1.500000e+01 -2.500000e+01  2.000000e-01
   endloop
 endfacet
 facet normal -0.000000e+00  1.000000e+00  0.000000e+00
   outer loop
     vertex -3.500000e+01  2.500000e+01  2.000000e-01
     vertex -1.500000e+01  2.500000e+01  2.000000e-01
     vertex -1.500000e+01  2.500000e+01  0.000000e+00
   endloop
 endfacet
 facet normal  0.000000e+00  1.000000e+00  0.000000e+00
   outer loop
     vertex -3.500000e+01  2.500000e+01  0.000000e+00
     vertex -3.500000e+01  2.500000e+01  2.000000e-01
     vertex -1.500000e+01  2.500000e+01  0.000000e+00
   endloop
 endfacet
 facet normal -1.000000e+00  0.000000e+00  0.000000e+00
   outer loop
     vertex -3.500000e+01 -2.500000e+01  0.000000e+00
     vertex -3.500000e+01  2.500000e+01  2.000000e-01
     vertex -3.500000e+01  2.500000e+01  0.000000e+00
   endloop
 endfacet
 facet normal -1.000000e+00  0.000000e+00  0.000000e+00
   outer loop
     vertex -3.500000e+01 -2.500000e+01  0.000000e+00
     vertex -3.500000e+01 -2.500000e+01  2.000000e-01
     vertex -3.500000e+01  2.500000e+01  2.000000e-01
   endloop
 endfacet
 facet normal  0.000000e+00 -0.000000e+00 -1.000000e+00
   outer loop
     vertex -1.500000e+01  2.500000e+01  0.000000e+00
     vertex -1.500000e+01 -2.500000e+01  0.000000e+00
     vertex -3.500000e+01 -2.500000e+01  0.000000e+00
   endloop
 endfacet
 facet normal -0.000000e+00  0.000000e+00 -1.000000e+00
   outer loop
     vertex -1.500000e+01  2.500000e+01  0.000000e+00
     vertex -3.500000e+01 -2.500000e+01  0.000000e+00
     vertex -3.500000e+01  2.500000e+01  0.000000e+00
   endloop
 endfacet
 facet normal  0.000000e+00  0.000000e+00  1.000000e+00
   outer loop
     vertex -1.500000e+01  2.500000e+01  2.000000e-01
     vertex -3.500000e+01 -2.500000e+01  2.000000e-01
     vertex -1.500000e+01 -2.500000e+01  2.000000e-01
   endloop
 endfacet
 facet normal  0.000000e+00  0.000000e+00  1.000000e+00
   outer loop
     vertex -1.500000e+01  2.500000e+01  2.000000e-01
     vertex -3.500000e+01  2.500000e+01  2.000000e-01
     vertex -3.500000e+01 -2.500000e+01  2.000000e-01
   endloop
 endfacet
 facet normal -0.000000e+00 -1.000000e+00  0.000000e+00
   outer loop
     vertex  1.000000e+01 -2.500000e+01  2.500000e-01
     vertex -1.000000e+01 -2.500000e+01  2.500000e-01
     vertex -1.000000e+01 -2.500000e+01  0.000000e+00
   endloop
 endfacet
 facet normal  0.000000e+00 -1.000000e+00  0.000000e+00
   outer loop
     vertex  1.000000e+01 -2.500000e+01  0.000000e+00
     vertex  1.000000e+01 -2.500000e+01  2.500000e-01
     vertex -1.000000e+01 -2.500000e+01  0.000000e+00
   endloop
 endfacet
 facet normal  1.000000e+00  0.000000e+00  0.000000e+00
   outer loop
     vertex  1.000000e+01  2.500000e+01  2.500000e-01
     vertex  1.000000e+01 -2.500000e+01  2.500000e-01
     vertex  1.000000e+01 -2.500000e+01  0.000000e+00
   endloop
 endfacet
 facet normal  1.000000e+00  0.000000e+00 -0.000000e+00
   outer loop
     vertex  1.000000e+01  2.500000e+01  0.000000e+00
     vertex  1.000000e+01  2.500000e+01  2.500000e-01
     vertex  1.000000e+01 -2.500000e+01  0.000000e+00
   endloop
 endfacet
 facet normal -0.000000e+00  1.000000e+00  0.000000e+00
   outer loop
     vertex -1.000000e+01  2.500000e+01  2.500000e-01
     vertex  1.000000e+01  2.500000e+01  2.500000e-01
     vertex  1.000000e+01  2.500000e+01  0.000000e+00
   endloop
 endfacet
 facet normal  0.000000e+00  1.000000e+00  0.000000e+00
   outer loop
     vertex -1.000000e+01  2.500000e+01  0.000000e+00
     vertex -1.000000e+01  2.500000e+01  2.500000e-01
     vertex  1.000000e+01  2.500000e+01  0.000000e+00
   endloop
 endfacet
 facet normal -1.000000e+00  0.000000e+00  0.000000e+00
   outer loop
     vertex -1.000000e+01 -2.500000e+01  2.500000e-01
     vertex -1.000000e+01  2.500000e+01  2.500000e-01
     vertex -1.000000e+01  2.500000e+01  0.000000e+00
   endloop
 endfacet
 facet normal -1.000000e+00  0.000000e+00  0.000000e+00
   outer loop
     vertex -1.000000e+01 -2.500000e+01  0.000000e+00
     vertex -1.000000e+01 -2.500000e+01  2.500000e-01
     vertex -1.000000e+01  2.500000e+01  0.000000e+00
   endloop
 endfacet
 facet normal  0.000000e+00 -0.000000e+00 -1.000000e+00
   outer loop
     vertex  1.000000e+01  2.500000e+01  0.000000e+00
     vertex  1.000000e+01 -2.500000e+01  0.000000e+00
     vertex -1.000000e+01 -2.500000e+01  0.000000e+00
   endloop
 endfacet
 facet normal -0.000000e+00  0.000000e+00 -1.000000e+00
   outer loop
     vertex  1.000000e+01  2.500000e+01  0.000000e+00
     vertex -1.000000e+01 -2.500000e+01  0.000000e+00
     vertex -1.000000e+01  2.500000e+01  0.000000e+00
   endloop
 endfacet
 facet normal  0.000000e+00  0.000000e+00  1.000000e+00
   outer loop
     vertex  1.000000e+01  2.500000e+01  2.500000e-01
     vertex -1.000000e+01 -2.500000e+01  2.500000e-01
     vertex  1.000000e+01 -2.500000e+01  2.500000e-01
   endloop
 endfacet
 facet normal  0.000000e+00  0.000000e+00  1.000000e+00
   outer loop
     vertex  1.000000e+01  2.500000e+01  2.500000e-01
     vertex -1.000000e+01  2.500000e+01  2.500000e-01
     vertex -1.000000e+01 -2.500000e+01  2.500000e-01
   endloop
 endfacet
 facet normal -0.000000e+00 -1.000000e+00  0.000000e+00
   outer loop
     vertex  3.500000e+01 -2.500000e+01  3.000000e-01
     vertex  1.500000e+01 -2.500000e+01  3.000000e-01
     vertex  1.500000e+01 -2.500000e+01  0.000000e+00
   endloop
 endfacet
 facet normal  0.000000e+00 -1.000000e+00  0.000000e+00
   outer loop
     vertex  3.500000e+01 -2.500000e+01  0.000000e+00
     vertex  3.500000e+01 -2.500000e+01  3.000000e-01
     vertex  1.500000e+01 -2.500000e+01  0.000000e+00
   endloop
 endfacet
 facet normal  1.000000e+00  0.000000e+00  0.000000e+00
   outer loop
     vertex  3.500000e+01  2.500000e+01  0.000000e+00
     vertex  3.500000e+01 -2.500000e+01  3.000000e-01
     vertex  3.500000e+01 -2.500000e+01  0.000000e+00
   endloop
 endfacet
 facet normal  1.000000e+00  0.000000e+00 -0.000000e+00
   outer loop
     vertex  3.500000e+01  2.500000e+01  0.000000e+00
     vertex  3.500000e+01  2.500000e+01  3.000000e-01
     vertex  3.500000e+01 -2.500000e+01  3.000000e-01
   endloop
 endfacet
 facet normal -0.000000e+00  1.000000e+00  0.000000e+00
   outer loop
     vertex  1.500000e+01  2.500000e+01  3.000000e-01
     vertex  3.500000e+01  2.500000e+01  3.000000e-01
     vertex  3.500000e+01  2.500000e+01  0.000000e+00
   endloop
 endfacet
 facet normal  0.000000e+00  1.000000e+00  0.000000e+00
   outer loop
     vertex  1.500000e+01  2.500000e+01  0.000000e+00
     vertex  1.500000e+01  2.500000e+01  3.000000e-01
     vertex  3.500000e+01  2.500000e+01  0.000000e+00
   endloop
 endfacet
 facet normal -1.000000e+00  0.000000e+00  0.000000e+00
   outer loop
     vertex  1.500000e+01 -2.500000e+01  0.000000e+00
     vertex  1.500000e+01  2.500000e+01  3.000000e-01
     vertex  1.500000e+01  2.500000e+01  0.000000e+00
   endloop
 endfacet
 facet normal -1.000000e+00  0.000000e+00  0.000000e+00
   outer loop
     vertex  1.500000e+01 -2.500000e+01  0.000000e+00
     vertex  1.500000e+01 -2.500000e+01  3.000000e-01
     vertex  1.500000e+01  2.500000e+01  3.000000e-01
   endloop
 endfacet
 facet normal  0.000000e+00 -0.000000e+00 -1.000000e+00
   outer loop
     vertex  3.500000e+01  2.500000e+01  0.000000e+00
     vertex  3.500000e+01 -2.500000e+01  0.000000e+00
     vertex  1.500000e+01 -2.500000e+01  0.000000e+00
   endloop
 endfacet
 facet normal -0.000000e+00  0.000000e+00 -1.000000e+00
   outer loop
     vertex  3.500000e+01  2.500000e+01  0.000000e+00
     vertex  1.500000e+01 -2.500000e+01  0.000000e+00
     vertex  1.500000e+01  2.500000e+01  0.000000e+00
   endloop
 endfacet
 facet normal  0.000000e+00  0.000000e+00  1.000000e+00
   outer loop
     vertex  3.500000e+01  2.500000e+01  3.000000e-01
     vertex  1.500000e+01 -2.500000e+01  3.000000e-01
     vertex  3.500000e+01 -2.500000e+01  3.000000e-01
   endloop
 endfacet
 facet normal  0.000000e+00  0.000000e+00  1.000000e+00
   outer loop
     vertex  3.500000e+01  2.500000e+01  3.000000e-01
     vertex  1.500000e+01  2.500000e+01  3.000000e-01
     vertex  1.500000e+01 -2.500000e+01  3.000000e-01
   endloop
 endfacet
 facet normal  0.000000e+00 -1.000000e+00  0.000000e+00
   outer loop
     vertex  6.000000e+01 -2.500000e+01  0.000000e+00
     vertex  4.000000e+01 -2.500000e+01  3.500000e-01
     vertex  4.000000e+01 -2.500000e+01  0.000000e+00
   endloop
 endfacet
 facet normal  0.000000e+00 -1.000000e+00  0.000000e+00
   outer loop
     vertex  6.000000e+01 -2.500000e+01  0.000000e+00
     vertex  6.000000e+01 -2.500000e+01  3.500000e-01
     vertex  4.000000e+01 -2.500000e+01  3.500000e-01
   endloop
 endfacet
 facet normal  1.000000e+00  0.000000e+00  0.000000e+00
   outer loop
     vertex  6.000000e+01  2.500000e+01  0.000000e+00
     vertex  6.000000e+01 -2.500000e+01  3.500000e-01
     vertex  6.000000e+01 -2.500000e+01  0.000000e+00
   endloop
 endfacet
 facet normal  1.000000e+00  0.000000e+00 -0.000000e+00
   outer loop
     vertex  6.000000e+01  2.500000e+01  0.000000e+00
     vertex  6.000000e+01  2.500000e+01  3.500000e-01
     vertex  6.000000e+01 -2.500000e+01  3.500000e-01
   endloop
 endfacet
 facet normal  0.000000e+00  1.000000e+00  0.000000e+00
   outer loop
     vertex  4.000000e+01  2.500000e+01  0.000000e+00
     vertex  6.000000e+01  2.500000e+01  3.500000e-01
     vertex  6.000000e+01  2.500000e+01  0.000000e+00
   endloop
 endfacet
 facet normal  0.000000e+00  1.000000e+00  0.000000e+00
   outer loop
     vertex  4.000000e+01  2.500000e+01  0.000000e+00
     vertex  4.000000e+01  2.500000e+01  3.500000e-01
     vertex  6.000000e+01  2.500000e+01  3.500000e-01
   endloop
 endfacet
 facet normal -1.000000e+00  0.000000e+00  0.000000e+00
   outer loop
     vertex  4.000000e+01 -2.500000e+01  0.000000e+00
     vertex  4.000000e+01  2.500000e+01  3.500000e-01
     vertex  4.000000e+01  2.500000e+01  0.000000e+00
   endloop
 endfacet
 facet normal -1.000000e+00  0.000000e+00  0.000000e+00
   outer loop
     vertex  4.000000e+01 -2.500000e+01  0.000000e+00
     vertex  4.000000e+01 -2.500000e+01  3.500000e-01
     vertex  4.000000e+01  2.500000e+01  3.500000e-01
   endloop
 endfacet
 facet normal  0.000000e+00 -0.000000e+00 -1.000000e+00
   outer loop
     vertex  6.000000e+01  2.500000e+01  0.000000e+00
     vertex  6.000000e+01 -2.500000e+01  0.000000e+00
     vertex  4.000000e+01 -2.500000e+01  0.000000e+00
   endloop
 endfacet
 facet normal -0.000000e+00  0.000000e+00 -1.000000e+00
   outer loop
     vertex  6.000000e+01  2.500000e+01  0.000000e+00
     vertex  4.000000e+01 -2.500000e+01  0.000000e+00
     vertex  4.000000e+01  2.500000e+01  0.000000e+00
   endloop
 endfacet
 facet normal  0.000000e+00  0.000000e+00  1.000000e+00
   outer loop
     vertex  6.000000e+01  2.500000e+01  3.500000e-01
     vertex  4.000000e+01 -2.500000e+01  3.500000e-01
     vertex  6.000000e+01 -2.500000e+01  3.500000e-01
   endloop
 endfacet
 facet normal  0.000000e+00  0.000000e+00  1.000000e+00
   outer loop
     vertex  6.000000e+01  2.500000e+01  3.500000e-01
     vertex  4.000000e+01  2.500000e+01  3.500000e-01
     vertex  4.000000e+01 -2.500000e+01  3.500000e-01
   endloop
 endfacet
 facet normal -0.000000e+00 -1.000000e+00  0.000000e+00
   outer loop
     vertex  8.500000e+01 -2.500000e+01  4.000000e-01
     vertex  6.500000e+01 -2.500000e+01  4.000000e-01
     vertex  6.500000e+01 -2.500000e+01  0.000000e+00
   endloop
 endfacet
 facet normal  0.000000e+00 -1.000000e+00  0.000000e+00
   outer loop
     vertex  8.500000e+01 -2.500000e+01  0.000000e+00
     vertex  8.500000e+01 -2.500000e+01  4.000000e-01
     vertex  6.500000e+01 -2.500000e+01  0.000000e+00
   endloop
 endfacet
 facet normal  1.000000e+00  0.000000e+00  0.000000e+00
   outer loop
     vertex  8.500000e+01  2.500000e+01  0.000000e+00
     vertex  8.500000e+01 -2.500000e+01  4.000000e-01
     vertex  8.500000e+01 -2.500000e+01  0.000000e+00
   endloop
 endfacet
 facet normal  1.000000e+00  0.000000e+00 -0.000000e+00
   outer loop
     vertex  8.500000e+01  2.500000e+01  0.000000e+00
     vertex  8.500000e+01  2.500000e+01  4.000000e-01
     vertex  8.500000e+01 -2.500000e+01  4.000000e-01
   endloop
 endfacet
 facet normal -0.000000e+00  1.000000e+00  0.000000e+00
   outer loop
     vertex  6.500000e+01  2.500000e+01  4.000000e-01
     vertex  8.500000e+01  2.500000e+01  4.000000e-01
     vertex  8.500000e+01  2.500000e+01  0.000000e+00
   endloop
 endfacet
 facet normal  0.000000e+00  1.000000e+00  0.000000e+00
   outer loop
     vertex  6.500000e+01  2.500000e+01  0.000000e+00
     vertex  6.500000e+01  2.500000e+01  4.000000e-01
     vertex  8.500000e+01  2.500000e+01  0.000000e+00
   endloop
 endfacet
 facet normal -1.000000e+00  0.000000e+00  0.000000e+00
   outer loop
     vertex  6.500000e+01 -2.500000e+01  0.000000e+00
     vertex  6.500000e+01  2.500000e+01  4.000000e-01
     vertex  6.500000e+01  2.500000e+01  0.000000e+00
   endloop
 endfacet
 facet normal -1.000000e+00  0.000000e+00  0.000000e+00
   outer loop
     vertex  6.500000e+01 -2.500000e+01  0.000000e+00
     vertex  6.500000e+01 -2.500000e+01  4.000000e-01
     vertex  6.500000e+01  2.500000e+01  4.000000e-01
   endloop
 endfacet
 facet normal  0.000000e+00 -0.000000e+00 -1.000000e+00
   outer loop
     vertex  8.500000e+01  2.500000e+01  0.000000e+00
     vertex  8.500000e+01 -2.500000e+01  0.000000e+00
     vertex  6.500000e+01 -2.500000e+01  0.000000e+00
   endloop
 endfacet
 facet normal -0.000000e+00  0.000000e+00 -1.000000e+00
   outer loop
     vertex  8.500000e+01  2.500000e+01  0.000000e+00
     vertex  6.500000e+01 -2.500000e+01  0.000000e+00
     vertex  6.500000e+01  2.500000e+01  0.000000e+00
   endloop
 endfacet
 facet normal  0.000000e+00  0.000000e+00  1.000000e+00
   outer loop
     vertex  8.500000e+01  2.500000e+01  4.000000e-01
     vertex  6.500000e+01 -2.500000e+01  4.000000e-01
     vertex  8.500000e+01 -2.500000e+01  4.000000e-01
   endloop
 endfacet
 facet normal  0.000000e+00  0.000000e+00  1.000000e+00
   outer loop
     vertex  8.500000e+01  2.500000e+01  4.000000e-01
     vertex  6.500000e+01  2.500000e+01  4.000000e-01
     vertex  6.500000e+01 -2.500000e+01  4.000000e-01
   endloop
 endfacet
endsolid
